<svg width="17" height="20" viewBox="0 0 17 20" fill="none" xmlns="http://www.w3.org/2000/svg">
<path d="M8.50004 11.7578C8.17672 11.7578 7.91406 12.0205 7.91406 12.3438C7.91406 12.6671 8.17672 12.9298 8.50004 12.9298C8.82336 12.9298 9.08602 12.6671 9.08602 12.3438C9.08602 12.0205 8.82336 11.7578 8.50004 11.7578Z" fill="white"/>
<path d="M12.0162 8.24219H4.7187C2.60011 8.24219 0.882568 9.95965 0.882568 12.0783C0.882568 15.6973 3.28413 19.0605 6.82241 19.8205C11.7508 20.8791 16.118 17.0922 16.118 12.344C16.118 10.0787 14.2816 8.24219 12.0162 8.24219ZM9.08628 13.9941V17.071C9.08628 17.3949 8.82417 17.657 8.5003 17.657C8.1764 17.657 7.91433 17.3949 7.91433 17.071V13.9941C7.23374 13.7514 6.74237 13.107 6.74237 12.3441C6.74237 11.3747 7.53093 10.5861 8.5003 10.5861C9.46968 10.5861 10.2582 11.3747 10.2582 12.3441C10.2582 13.107 9.76686 13.7513 9.08628 13.9941Z" fill="white"/>
<path d="M8.50039 0C5.58223 0 3.22656 2.35562 3.22656 5.27383V7.3234C3.70102 7.17391 4.19582 7.07086 4.71898 7.07086H5.57051V5.27383C5.57051 3.65652 6.88309 2.34395 8.50039 2.34395C10.1177 2.34395 11.4303 3.65652 11.4303 5.27383V7.07082H12.0163C12.6356 7.07082 13.2216 7.19777 13.7742 7.3948V5.27383C13.7742 2.35844 11.4128 0 8.50039 0Z" fill="white"/>
</svg>
