<svg width="20" height="28" viewBox="0 0 32 28" fill="none" xmlns="http://www.w3.org/2000/svg">
<path d="M16.9606 0.0914718C19.1482 0.0914718 21.3359 0.0970649 23.5229 0.0869974C23.9904 0.0847601 24.3162 0.250874 24.5535 0.673711C25.7363 2.78286 26.9334 4.88362 28.1267 6.98661C29.1463 8.78366 30.1709 10.5779 31.1812 12.38C31.2576 12.5159 31.3048 12.7391 31.2455 12.8616C31.1988 12.9572 30.9669 12.9941 30.8164 12.9969C30.0753 13.0092 29.3331 12.9835 28.5925 13.0076C28.0959 13.0238 27.763 12.8297 27.5185 12.3934C26.4632 10.5097 25.3963 8.63265 24.3327 6.75394C23.785 5.78634 23.2356 4.82041 22.6862 3.85393C22.4676 3.46857 22.133 3.31532 21.7028 3.31532C18.5362 3.31867 15.3691 3.30637 12.2025 3.32539C11.6301 3.32874 11.2526 3.13858 10.9873 2.61842C10.6588 1.97522 10.2742 1.36166 9.93085 0.725726C9.85943 0.59373 9.78527 0.368329 9.84515 0.280518C9.92261 0.167538 10.1336 0.102099 10.2885 0.0993021C11.1757 0.0830822 12.0641 0.0914718 12.9519 0.0914718C14.2879 0.0914718 15.624 0.0914718 16.9606 0.0914718Z" fill="#3772FF"/>
<path d="M27.5944 15.4948C27.7949 15.1447 28.1102 14.9763 28.5058 14.9741C29.2837 14.9707 30.0622 14.9691 30.8406 14.973C31.29 14.9752 31.4197 15.204 31.1994 15.5949C30.7264 16.4344 30.2457 17.27 29.7809 18.114L27.0087 22.9962C26.1907 24.4381 25.3667 25.8767 24.5574 27.3236C24.336 27.7201 24.0405 27.9131 23.5845 27.9125C19.1351 27.9064 14.6857 27.9103 10.2363 27.9109C9.81385 27.9109 9.68694 27.6922 9.89406 27.3264C10.2869 26.6328 10.6797 25.9393 11.0697 25.2441C11.284 24.8621 11.5933 24.6814 12.0355 24.682C15.2213 24.6898 18.4077 24.6809 21.5936 24.692C22.1451 24.6937 22.522 24.4968 22.7895 23.9884C23.2691 23.0784 23.7718 22.1791 24.3135 21.3066L27.5944 15.4948Z" fill="#3772FF"/>
<path d="M2.12148 16.7706C1.69736 16.0317 1.28643 15.2845 0.856269 14.5496C0.635421 14.172 0.647507 13.8197 0.860664 13.4455C1.90722 11.611 2.94609 9.77195 3.9899 7.93518C5.1804 5.84002 6.37145 3.74541 7.56414 1.65192C7.75587 1.31466 8.01023 1.31578 8.20306 1.65304C8.6118 2.36896 9.01834 3.08599 9.42377 3.80414C9.61825 4.14923 9.61331 4.49656 9.41883 4.83998C8.49588 6.46812 7.57128 8.0957 6.64833 9.72329C5.94458 10.9644 5.24303 12.2066 4.53818 13.4466C4.31568 13.8387 4.32942 14.2084 4.55851 14.6027L8.49643 21.5308C8.7887 22.0465 9.07272 22.5678 9.37543 23.0773C9.62375 23.4962 9.6199 23.89 9.36884 24.31C8.96999 24.9784 8.59806 25.663 8.20966 26.3375C7.99925 26.7039 7.77016 26.7134 7.56414 26.3537C6.8082 25.0349 6.0605 23.7116 5.3095 22.3905L2.12148 16.7706Z" fill="#3772FF"/>
<path d="M6.63955 14.507C6.44123 14.1591 6.44343 13.8375 6.64614 13.4835C7.92454 11.2474 9.1925 9.00512 10.4632 6.76454C10.6819 6.37973 10.8577 6.37582 11.0807 6.75559L14.9417 13.5467C15.1247 13.8649 15.1049 14.1664 14.9318 14.4707C13.6562 16.7196 12.3811 18.9692 11.0972 21.2131C11.0236 21.3423 10.8747 21.5079 10.7599 21.509C10.6418 21.5101 10.5731 21.3736 10.4632 21.1762L6.63955 14.507Z" fill="#3772FF"/>
<path d="M21.5216 22.3966C21.3551 22.6841 21.0826 22.8077 20.7568 22.8077C18.1935 22.8083 15.6301 22.8094 13.0662 22.8072C12.6772 22.8066 12.5651 22.6114 12.7563 22.2747C14.0407 20.0089 15.3301 17.746 16.6129 15.4791C16.8118 15.1279 17.0931 14.9701 17.4881 14.9707C19.9965 14.9752 22.5055 14.9724 25.0139 14.9741C25.1046 14.9741 25.1985 14.9774 25.2859 14.9998C25.5029 15.0552 25.5902 15.228 25.4804 15.4243C25.0326 16.2241 22.0264 21.5258 21.5216 22.3966Z" fill="#3772FF"/>
<path d="M12.7091 5.65156C12.5926 5.41217 12.6849 5.25109 12.9464 5.22928C12.992 5.22536 13.0381 5.22704 13.0837 5.22704C15.6284 5.22704 18.1726 5.23375 20.7173 5.22201C21.1332 5.21977 21.3991 5.37414 21.604 5.73881C22.8395 7.93577 24.0899 10.1238 25.326 12.3202C25.4177 12.4835 25.5194 12.715 25.4716 12.8689C25.3958 13.1138 25.1244 12.9975 24.9348 12.9975C22.4088 13.0031 19.8822 13.0014 17.3562 13.0059C17.0299 13.0064 16.8008 12.8666 16.6398 12.5825C16.1003 11.6305 12.8568 5.95526 12.7091 5.65156Z" fill="#3772FF"/>
</svg>
